<?xml version="1.0" standalone="no"?>
<svg height="748.000000pt" preserveAspectRatio="xMidYMid meet" viewBox="0 0 985.000000 748.000000"
    width="985.000000pt" xmlns="http://www.w3.org/2000/svg">
    <g fill="#000000" stroke="none"
        transform="translate(0.000000,748.000000) scale(0.100000,-0.100000)">
        <path d="M4155 6985 c4 -16 117 -500 251 -1075 l245 -1045 526 -960 c289 -528
530 -964 534 -969 4 -5 6 0 3 10 -2 10 -116 496 -253 1079 l-249 1060 -522
950 c-287 523 -526 957 -532 965 -6 11 -7 6 -3 -15z m591 -1435 l172 -375 42
-7 c134 -23 214 -157 164 -276 -8 -20 -26 -48 -40 -63 l-24 -25 129 -414 c72
-228 129 -416 127 -417 -2 -2 -83 174 -181 392 l-178 395 -31 0 c-39 0 -106
31 -136 61 -33 35 -60 99 -60 144 0 46 28 112 59 139 11 11 21 24 21 29 0 6
-58 194 -130 418 -71 224 -130 412 -129 416 1 10 -12 36 195 -417z" />
        <path d="M4791 6969 c-153 -10 -413 -58 -426 -80 -3 -4 17 -51 46 -102 l51
-95 52 14 c186 50 510 61 716 25 514 -89 962 -389 1232 -823 414 -667 352
-1518 -154 -2116 -135 -158 -274 -275 -458 -383 -58 -35 -106 -63 -107 -63 -2
-1 48 -210 52 -214 1 -2 31 11 64 28 292 147 582 407 764 685 80 124 189 348
232 480 80 246 115 532 96 773 -60 723 -475 1344 -1111 1662 -156 78 -229 106
-383 145 -224 59 -440 79 -666 64z" />
        <path d="M3985 6737 c-295 -159 -559 -399 -738 -672 -69 -107 -185 -339 -221
-446 -37 -111 -73 -260 -91 -384 -22 -145 -22 -423 -1 -565 137 -898 827
-1584 1726 -1715 170 -25 501 -16 660 18 151 32 200 46 200 56 0 9 -87 171
-98 183 -4 4 -34 0 -67 -7 -197 -47 -495 -60 -682 -30 -283 46 -511 134 -734
284 -469 315 -759 813 -798 1371 -39 545 171 1071 578 1452 82 76 263 205 364
258 26 14 47 29 47 35 -2 32 -47 199 -55 202 -6 1 -46 -17 -90 -40z" />
        <path d="M4745 6663 c-73 -8 -212 -35 -224 -42 -22 -14 5 -54 32 -47 144 39
453 52 625 27 332 -49 690 -228 920 -461 193 -194 323 -398 405 -636 187 -537
90 -1124 -258 -1569 -101 -129 -255 -271 -393 -362 -67 -45 -127 -83 -133 -85
-6 -2 -8 -15 -4 -31 l7 -27 57 32 c288 162 529 412 680 708 97 188 158 386
181 590 16 130 8 385 -14 500 -37 188 -117 407 -200 547 -273 462 -725 771
-1239 847 -98 15 -354 20 -442 9z" />
        <path d="M4891 6258 l-43 -266 112 -205 c61 -113 117 -213 124 -222 9 -13
-113 781 -146 940 -2 11 -23 -100 -47 -247z" />
        <path d="M4045 6424 c-137 -84 -223 -154 -349 -284 -230 -239 -375 -515 -448
-850 -19 -92 -22 -134 -22 -335 -1 -203 2 -242 22 -335 52 -238 153 -473 279
-649 141 -196 360 -396 552 -504 177 -100 317 -152 535 -199 87 -19 132 -22
321 -22 186 0 236 3 324 22 57 12 106 23 108 26 9 9 -9 46 -22 46 -8 0 -47 -7
-87 -15 -189 -40 -473 -38 -669 5 -198 43 -397 125 -562 233 -278 181 -508
458 -629 758 -144 359 -165 729 -62 1094 112 396 402 770 752 969 61 35 72 45
70 65 -2 14 -7 26 -13 27 -5 2 -50 -22 -100 -52z" />
        <path d="M4146 5738 c23 -37 258 -358 260 -355 2 2 -8 50 -22 108 l-25 104
-52 37 c-29 20 -78 55 -111 79 -32 23 -55 35 -50 27z" />
        <path d="M5458 5558 l-267 -192 51 -95 c28 -53 54 -99 58 -104 3 -4 101 126
218 288 116 162 211 295 209 295 -1 0 -122 -86 -269 -192z" />
        <path d="M5325 5113 c7 -21 28 -104 46 -185 32 -144 34 -148 59 -147 14 0 261
40 550 88 l525 87 -565 92 c-311 51 -579 95 -597 98 l-31 6 13 -39z" />
        <path d="M3990 5060 c-622 -103 -616 -102 -605 -106 6 -2 271 -47 589 -99 319
-52 581 -97 583 -99 3 -2 -87 -132 -199 -288 -222 -308 -230 -319 -207 -302 8
7 131 96 274 199 143 103 259 190 258 194 -1 3 -32 60 -68 126 -61 110 -71
134 -108 288 -23 92 -44 166 -47 166 -3 -1 -214 -36 -470 -79z" />
        <path d="M5470 4509 c1 -8 11 -55 23 -106 24 -102 7 -82 172 -198 l70 -50 -36
50 c-20 28 -80 110 -133 184 -53 73 -96 127 -96 120z" />
        <path d="M4774 4365 c3 -16 40 -239 82 -495 41 -255 77 -466 79 -468 3 -4 11
43 59 339 l32 195 -122 223 c-67 122 -125 225 -129 229 -4 4 -5 -6 -1 -23z" />
        <path d="M2950 2700 l0 -40 2010 0 2010 0 0 40 0 40 -2010 0 -2010 0 0 -40z" />
        <path d="M820 2425 l0 -45 4150 0 4150 0 0 45 0 45 -4150 0 -4150 0 0 -45z" />
        <path d="M3080 2184 c-266 -51 -548 -287 -614 -513 -18 -63 -20 -182 -3 -228
38 -103 124 -166 252 -184 181 -25 364 46 501 194 79 85 118 170 122 268 4 72
6 78 38 109 28 26 32 35 24 51 -13 24 -15 24 -51 -2 l-29 -20 -32 23 c-86 60
-356 13 -422 -75 -26 -35 -14 -72 34 -105 32 -22 43 -23 130 -20 72 3 110 10
158 30 62 26 62 26 62 4 -1 -69 -87 -172 -184 -219 -144 -71 -281 -55 -346 40
-22 33 -25 47 -25 132 0 88 3 102 33 165 43 92 152 201 245 245 146 70 266 62
354 -22 32 -30 33 -30 53 -12 38 34 22 93 -33 122 -32 16 -209 28 -267 17z
m134 -344 c39 -14 31 -34 -21 -53 -69 -26 -173 -33 -198 -14 -19 15 -19 17 -3
33 34 34 168 55 222 34z" />
        <path d="M5257 2170 c-86 -15 -182 -49 -224 -79 -52 -37 -65 -74 -47 -127 18
-53 49 -77 88 -68 49 10 59 25 47 70 -8 30 -8 43 4 61 34 52 155 85 310 87
215 1 276 -48 230 -185 l-16 -45 -103 -11 c-155 -16 -221 -59 -182 -118 l16
-24 35 20 c29 18 173 51 183 43 2 -1 -18 -35 -44 -76 -88 -133 -210 -237 -281
-238 -37 0 -55 40 -51 112 l3 63 -29 0 c-55 0 -126 -140 -126 -251 0 -203 198
-221 389 -34 78 76 194 246 242 355 l33 77 78 -7 c74 -7 78 -6 78 14 0 25 -25
39 -85 48 -44 6 -46 7 -41 32 3 14 9 55 12 91 5 58 3 69 -18 99 -50 74 -141
101 -328 100 -69 -1 -147 -5 -173 -9z" />
        <path d="M7576 2047 c-17 -19 -85 -124 -150 -233 -66 -109 -134 -218 -152
-242 -82 -108 -190 -147 -222 -79 -43 89 108 228 263 244 36 4 55 10 55 19 0
24 -37 35 -97 28 -163 -19 -319 -123 -395 -262 -17 -32 -83 -72 -118 -72 -12
0 -25 10 -30 23 -12 25 -1 72 46 199 37 99 30 114 -47 110 -79 -4 -159 -40
-267 -118 -25 -19 -26 -20 12 69 19 43 14 57 -18 57 -58 0 -165 -100 -235
-220 -43 -75 -88 -110 -140 -110 -42 0 -54 7 -70 38 -21 40 15 141 79 222 32
41 26 60 -20 60 -91 0 -280 -251 -280 -372 0 -101 51 -145 157 -135 68 7 116
27 186 81 32 24 47 31 47 21 0 -26 61 -84 100 -96 21 -6 50 -9 64 -5 23 6 26
11 26 54 1 81 25 178 53 215 30 40 150 123 191 133 16 4 27 3 23 -2 -3 -5 -26
-40 -51 -77 -76 -113 -95 -215 -53 -278 55 -83 191 -71 289 25 l36 36 22 -35
c28 -46 72 -68 135 -68 66 0 121 18 167 54 34 26 37 27 43 11 3 -11 17 -30 31
-43 34 -32 121 -32 185 -1 79 38 219 204 219 259 0 32 -22 29 -49 -8 -30 -40
-108 -89 -143 -89 -77 0 -50 120 90 395 28 55 65 124 82 153 25 43 28 53 15
57 -8 3 -22 7 -31 10 -10 3 -28 -8 -48 -28z" />
        <path d="M6134 2059 c-67 -19 -103 -95 -64 -136 26 -29 59 -37 113 -29 85 13
128 60 113 122 -11 44 -88 65 -162 43z" />
        <path d="M4223 1785 c-13 -9 -23 -22 -24 -28 0 -7 -26 -24 -58 -40 -69 -32
-142 -102 -179 -172 -20 -38 -38 -56 -72 -72 -64 -32 -158 -40 -214 -19 -79
30 -76 40 21 64 139 35 223 101 223 176 0 73 -58 102 -174 85 -146 -20 -300
-125 -341 -233 -23 -59 -17 -155 12 -194 39 -53 98 -76 203 -80 112 -4 181 15
263 74 36 26 52 33 55 24 11 -33 69 -82 107 -90 164 -38 405 27 514 139 58 60
99 137 82 154 -8 8 -25 -2 -64 -40 -57 -58 -136 -100 -122 -66 59 141 43 240
-46 295 -57 36 -153 48 -186 23z m-441 -90 c10 -21 8 -30 -9 -53 -29 -39 -77
-69 -124 -77 -22 -4 -42 -5 -44 -3 -12 12 22 88 55 120 30 30 45 38 74 38 29
0 39 -5 48 -25z m513 0 c47 -46 27 -134 -46 -200 -46 -41 -101 -49 -119 -16
-24 47 1 154 46 192 21 18 74 48 87 49 4 0 19 -11 32 -25z" />
        <path d="M820 925 l0 -45 4150 0 4150 0 0 45 0 45 -4150 0 -4150 0 0 -45z" />
        <path d="M2950 650 l0 -40 2010 0 2010 0 0 40 0 40 -2010 0 -2010 0 0 -40z" />
    </g>
</svg>
